<svg width="52" height="52" viewBox="0 0 52 52" fill="none" xmlns="http://www.w3.org/2000/svg">
<path fill-rule="evenodd" clip-rule="evenodd" d="M43.334 28.1673H29.2507C28.6523 28.1673 28.1673 28.6523 28.1673 29.2507V44.4173C28.1673 45.0156 28.6523 45.5006 29.2507 45.5006H43.334C44.5306 45.5006 45.5006 44.5306 45.5006 43.334V30.334C45.5006 29.1374 44.5306 28.1673 43.334 28.1673ZM23.834 23.834V49.834H43.334C46.9238 49.834 49.834 46.9238 49.834 43.334V30.334C49.834 26.7441 46.9238 23.834 43.334 23.834H23.834Z" fill="#F2DFCE"/>
<path d="M34.666 23.834H38.9993V30.334C38.9993 31.5306 38.0293 32.5007 36.8327 32.5007V32.5007C35.6361 32.5007 34.666 31.5306 34.666 30.334V23.834Z" fill="#F2DFCE"/>
<path fill-rule="evenodd" clip-rule="evenodd" d="M23.8327 29.2507C23.8327 28.6523 23.3477 28.1673 22.7493 28.1673H8.66602C7.4694 28.1673 6.49935 29.1374 6.49935 30.334V43.334C6.49935 44.5306 7.4694 45.5006 8.66602 45.5006H22.7493C23.3477 45.5006 23.8327 45.0156 23.8327 44.4173V29.2507ZM8.66602 23.834C5.07617 23.834 2.16602 26.7441 2.16602 30.334V43.334C2.16602 46.9238 5.07617 49.834 8.66602 49.834H28.166V23.834H8.66602Z" fill="#F2DFCE"/>
<path d="M13 23.834H17.3333V30.334C17.3333 31.5306 16.3633 32.5007 15.1667 32.5007V32.5007C13.97 32.5007 13 31.5306 13 30.334V23.834Z" fill="#F2DFCE"/>
<path fill-rule="evenodd" clip-rule="evenodd" d="M32.5 6.49935H19.5C18.3034 6.49935 17.3333 7.4694 17.3333 8.66602V23.8327H34.6667V8.66602C34.6667 7.4694 33.6966 6.49935 32.5 6.49935ZM19.5 2.16602C15.9101 2.16602 13 5.07617 13 8.66602V28.166H39V8.66602C39 5.07617 36.0899 2.16602 32.5 2.16602H19.5Z" fill="#F2DFCE"/>
<path d="M23.834 2.16602H28.1673V8.66602C28.1673 9.86263 27.1973 10.8327 26.0007 10.8327V10.8327C24.804 10.8327 23.834 9.86263 23.834 8.66602V2.16602Z" fill="#F2DFCE"/>
</svg>
