<svg width="52" height="52" viewBox="0 0 52 52" fill="none" xmlns="http://www.w3.org/2000/svg">
<path fill-rule="evenodd" clip-rule="evenodd" d="M4.33398 13.0007C4.33398 8.21418 8.21418 4.33398 13.0007 4.33398H39.0007C43.7871 4.33398 47.6673 8.21418 47.6673 13.0007V39.0007C47.6673 43.7871 43.7871 47.6673 39.0007 47.6673H13.0007C8.21418 47.6673 4.33398 43.7871 4.33398 39.0007V13.0007ZM13.0007 8.66732H39.0007C41.3939 8.66732 43.334 10.6074 43.334 13.0007V23.834H8.66732V13.0007C8.66732 10.6074 10.6074 8.66732 13.0007 8.66732ZM8.66732 28.1673V39.0007C8.66732 41.3939 10.6074 43.334 13.0007 43.334H39.0007C41.3939 43.334 43.334 41.3939 43.334 39.0007V28.1673H8.66732Z" fill="#F2DFCE"/>
<path d="M21.6667 13C20.4701 13 19.5 13.97 19.5 15.1667C19.5 16.3633 20.4701 17.3333 21.6667 17.3333H30.3333C31.5299 17.3333 32.5 16.3633 32.5 15.1667C32.5 13.97 31.5299 13 30.3333 13H21.6667Z" fill="#F2DFCE"/>
<path d="M21.6667 32.5C20.4701 32.5 19.5 33.47 19.5 34.6667C19.5 35.8633 20.4701 36.8333 21.6667 36.8333H30.3333C31.5299 36.8333 32.5 35.8633 32.5 34.6667C32.5 33.47 31.5299 32.5 30.3333 32.5H21.6667Z" fill="#F2DFCE"/>
</svg>
