<svg width="52" height="52" viewBox="0 0 52 52" fill="none" xmlns="http://www.w3.org/2000/svg">
<path fill-rule="evenodd" clip-rule="evenodd" d="M19.4991 23.8975C19.5443 25.0932 18.6115 26.0992 17.4157 26.1443C14.72 26.2461 12.7525 26.389 11.3418 26.5296C9.95254 26.668 9.11666 27.5066 8.97375 28.6757C8.80523 30.0543 8.66732 31.9989 8.66732 34.6675C8.66732 37.3362 8.80524 39.2809 8.97376 40.6594C9.11661 41.8279 9.95286 42.667 11.3424 42.8054C13.9609 43.0663 18.4849 43.3342 26.0007 43.3342C33.5164 43.3342 38.0404 43.0663 40.6589 42.8054C42.0484 42.667 42.8847 41.8279 43.0275 40.6594C43.1961 39.2809 43.334 37.3362 43.334 34.6675C43.334 31.9989 43.1961 30.0543 43.0276 28.6757C42.8846 27.5066 42.0488 26.668 40.6595 26.5296C39.2488 26.389 37.2813 26.2461 34.5856 26.1443C33.3898 26.0992 32.4571 25.0932 32.5022 23.8975C32.5473 22.7017 33.5533 21.7689 34.7491 21.8141C37.516 21.9185 39.5739 22.0666 41.0891 22.2176C44.2744 22.5349 46.914 24.7557 47.3289 28.1499C47.522 29.7299 47.6673 31.8526 47.6673 34.6675C47.6673 37.4825 47.522 39.6053 47.3289 41.1852C46.9139 44.5797 44.2731 46.8002 41.0884 47.1174C38.2842 47.3968 33.609 47.6675 26.0007 47.6675C18.3923 47.6675 13.7171 47.3968 10.9129 47.1174C7.72818 46.8002 5.08742 44.5797 4.67245 41.1852C4.4793 39.6053 4.33398 37.4825 4.33398 34.6675C4.33398 31.8526 4.47929 29.7299 4.67243 28.1499C5.08734 24.7557 7.72687 22.5349 10.9122 22.2176C12.4274 22.0666 14.4854 21.9185 17.2523 21.8141C18.448 21.7689 19.454 22.7017 19.4991 23.8975Z" fill="#F2DFCE"/>
<path fill-rule="evenodd" clip-rule="evenodd" d="M19.9487 15.616C19.1026 16.4622 17.7307 16.4622 16.8846 15.616C16.0385 14.7699 16.0385 13.3981 16.8846 12.5519L24.4679 4.96859C25.3141 4.12245 26.6859 4.12245 27.5321 4.96859L35.1154 12.5519C35.9615 13.3981 35.9615 14.7699 35.1154 15.616C34.2693 16.4622 32.8974 16.4622 32.0513 15.616L28.1667 11.7314L28.1667 32.5007C28.1667 33.6973 27.1966 34.6673 26 34.6673C24.8034 34.6673 23.8333 33.6973 23.8333 32.5007L23.8333 11.7314L19.9487 15.616Z" fill="#F2DFCE"/>
</svg>
