<svg width="52" height="52" viewBox="0 0 52 52" fill="none" xmlns="http://www.w3.org/2000/svg">
<path fill-rule="evenodd" clip-rule="evenodd" d="M6.50065 4.33398C5.30403 4.33398 4.33398 5.30403 4.33398 6.50065C4.33398 7.69727 5.30403 8.66732 6.50065 8.66732H8.66732V39.0007C8.66732 43.7871 12.5475 47.6673 17.334 47.6673H34.6673C39.4538 47.6673 43.334 43.7871 43.334 39.0007V8.66732H45.5007C46.6973 8.66732 47.6673 7.69727 47.6673 6.50065C47.6673 5.30403 46.6973 4.33398 45.5007 4.33398H6.50065ZM39.0007 8.66732H13.0007V39.0007C13.0007 41.3939 14.9408 43.334 17.334 43.334H34.6673C37.0606 43.334 39.0007 41.3939 39.0007 39.0007V8.66732Z" fill="#F2DFCE"/>
<path d="M27.5327 15.8006C26.6866 14.9545 25.3147 14.9545 24.4686 15.8006L17.9686 22.3006C17.1225 23.1468 17.1225 24.5186 17.9686 25.3647C18.8147 26.2109 20.1866 26.2109 21.0327 25.3647L23.834 22.5635V34.666C23.834 35.8626 24.804 36.8327 26.0007 36.8327C27.1973 36.8327 28.1673 35.8626 28.1673 34.666V22.5635L30.9686 25.3647C31.8147 26.2109 33.1866 26.2109 34.0327 25.3647C34.8788 24.5186 34.8788 23.1468 34.0327 22.3006L27.5327 15.8006Z" fill="#F2DFCE"/>
</svg>
