<svg width="52" height="52" viewBox="0 0 52 52" fill="none" xmlns="http://www.w3.org/2000/svg">
<path fill-rule="evenodd" clip-rule="evenodd" d="M43.3333 13H8.66667C6.27343 13 4.33333 14.9401 4.33333 17.3333V34.6666C4.33333 37.0599 6.27343 39 8.66667 39H43.3333C45.7266 39 47.6667 37.0599 47.6667 34.6666V17.3333C47.6667 14.9401 45.7266 13 43.3333 13ZM8.66667 8.66663C3.8802 8.66663 0 12.5468 0 17.3333V34.6666C0 39.4531 3.8802 43.3333 8.66667 43.3333H43.3333C48.1198 43.3333 52 39.4531 52 34.6666V17.3333C52 12.5468 48.1198 8.66663 43.3333 8.66663H8.66667Z" fill="#F2DFCE"/>
<path d="M34.6667 21.6667C34.6667 20.4701 35.6367 19.5 36.8334 19.5H41.1667C42.3633 19.5 43.3334 20.4701 43.3334 21.6667C43.3334 22.8633 42.3633 23.8333 41.1667 23.8333H36.8334C35.6367 23.8333 34.6667 22.8633 34.6667 21.6667Z" fill="#F2DFCE"/>
<path d="M8.66669 30.3333C8.66669 29.1367 9.63674 28.1667 10.8334 28.1667C12.03 28.1667 13 29.1367 13 30.3333C13 31.5299 12.03 32.5 10.8334 32.5C9.63674 32.5 8.66669 31.5299 8.66669 30.3333Z" fill="#F2DFCE"/>
<path d="M17.3334 30.3333C17.3334 29.1367 18.3034 28.1667 19.5 28.1667H32.5C33.6966 28.1667 34.6667 29.1367 34.6667 30.3333C34.6667 31.5299 33.6966 32.5 32.5 32.5H19.5C18.3034 32.5 17.3334 31.5299 17.3334 30.3333Z" fill="#F2DFCE"/>
<path d="M41.1667 28.1667C39.9701 28.1667 39 29.1367 39 30.3333C39 31.5299 39.9701 32.5 41.1667 32.5C42.3633 32.5 43.3334 31.5299 43.3334 30.3333C43.3334 29.1367 42.3633 28.1667 41.1667 28.1667Z" fill="#F2DFCE"/>
<path d="M28.1667 19.5C26.9701 19.5 26 20.4701 26 21.6667C26 22.8633 26.9701 23.8333 28.1667 23.8333C29.3633 23.8333 30.3334 22.8633 30.3334 21.6667C30.3334 20.4701 29.3633 19.5 28.1667 19.5Z" fill="#F2DFCE"/>
<path d="M17.3334 21.6667C17.3334 20.4701 18.3034 19.5 19.5 19.5C20.6966 19.5 21.6667 20.4701 21.6667 21.6667C21.6667 22.8633 20.6966 23.8333 19.5 23.8333C18.3034 23.8333 17.3334 22.8633 17.3334 21.6667Z" fill="#F2DFCE"/>
<path d="M10.8334 19.5C9.63674 19.5 8.66669 20.4701 8.66669 21.6667C8.66669 22.8633 9.63674 23.8333 10.8334 23.8333C12.03 23.8333 13 22.8633 13 21.6667C13 20.4701 12.03 19.5 10.8334 19.5Z" fill="#F2DFCE"/>
</svg>
