<svg width="52" height="52" viewBox="0 0 52 52" fill="none" xmlns="http://www.w3.org/2000/svg">
<path fill-rule="evenodd" clip-rule="evenodd" d="M26 23.8333C22.1594 23.8333 18.7383 23.9732 15.9431 24.1509C13.2919 24.3194 11.2532 26.3423 11.0629 28.9748C10.9276 30.8475 10.8333 32.8208 10.8333 34.6667C10.8333 36.5125 10.9276 38.4858 11.0629 40.3585C11.2532 42.991 13.2919 45.0139 15.9432 45.1824C18.7383 45.3601 22.1594 45.5 26 45.5C29.8406 45.5 33.2617 45.3601 36.0569 45.1824C38.7081 45.0139 40.7468 42.991 40.9371 40.3585C41.0724 38.4858 41.1667 36.5125 41.1667 34.6667C41.1667 32.8208 41.0724 30.8475 40.9371 28.9748C40.7468 26.3423 38.7081 24.3194 36.0568 24.1509C33.2617 23.9732 29.8406 23.8333 26 23.8333ZM15.6683 19.8263C10.8631 20.1317 7.08798 23.8601 6.74088 28.6624C6.60079 30.6007 6.5 32.6841 6.5 34.6667C6.5 36.6493 6.60079 38.7327 6.74088 40.6709C7.08798 45.4732 10.8631 49.2016 15.6683 49.5071C18.5419 49.6897 22.0555 49.8333 26 49.8333C29.9445 49.8333 33.4581 49.6897 36.3317 49.5071C41.1369 49.2016 44.912 45.4732 45.2591 40.6709C45.3992 38.7327 45.5 36.6493 45.5 34.6667C45.5 32.6841 45.3992 30.6007 45.2591 28.6624C44.912 23.8601 41.1369 20.1317 36.3317 19.8263C33.4581 19.6436 29.9445 19.5 26 19.5C22.0555 19.5 18.5419 19.6436 15.6683 19.8263Z" fill="#F2DFCE"/>
<path fill-rule="evenodd" clip-rule="evenodd" d="M28.1667 36.2537C29.4619 35.5044 30.3334 34.104 30.3334 32.5001C30.3334 30.1068 28.3933 28.1667 26 28.1667C23.6068 28.1667 21.6667 30.1068 21.6667 32.5001C21.6667 34.104 22.5381 35.5044 23.8334 36.2537V39.0001C23.8334 40.1967 24.8034 41.1667 26 41.1667C27.1966 41.1667 28.1667 40.1967 28.1667 39.0001V36.2537Z" fill="#F2DFCE"/>
<path fill-rule="evenodd" clip-rule="evenodd" d="M15.1667 13.0001C15.1667 7.017 20.0169 2.16675 26 2.16675C31.9831 2.16675 36.8334 7.017 36.8334 13.0001V21.6667C36.8334 22.8634 35.8633 23.8334 34.6667 23.8334C33.4701 23.8334 32.5 22.8634 32.5 21.6667V13.0001C32.5 9.41023 29.5899 6.50008 26 6.50008C22.4102 6.50008 19.5 9.41023 19.5 13.0001V21.6667C19.5 22.8634 18.53 23.8334 17.3334 23.8334C16.1367 23.8334 15.1667 22.8634 15.1667 21.6667V13.0001Z" fill="#F2DFCE"/>
</svg>
