<svg width="52" height="52" viewBox="0 0 52 52" fill="none" xmlns="http://www.w3.org/2000/svg">
<path fill-rule="evenodd" clip-rule="evenodd" d="M43.3333 12.9993H8.66667C6.27343 12.9993 4.33333 14.9394 4.33333 17.3327V34.666C4.33333 37.0592 6.27343 38.9993 8.66667 38.9993H43.3333C45.7266 38.9993 47.6667 37.0592 47.6667 34.666V17.3327C47.6667 14.9394 45.7266 12.9993 43.3333 12.9993ZM8.66667 8.66602C3.8802 8.66602 0 12.5462 0 17.3327V34.666C0 39.4525 3.8802 43.3327 8.66667 43.3327H43.3333C48.1198 43.3327 52 39.4525 52 34.666V17.3327C52 12.5462 48.1198 8.66602 43.3333 8.66602H8.66667Z" fill="#F2DFCE"/>
<path d="M49.8327 21.6673C49.8327 22.8639 48.8626 23.834 47.666 23.834C41.6829 23.834 36.8327 18.9837 36.8327 13.0007C36.8327 11.804 37.8027 10.834 38.9993 10.834C40.196 10.834 41.166 11.804 41.166 13.0007C41.166 16.5905 44.0762 19.5007 47.666 19.5007C48.8626 19.5007 49.8327 20.4707 49.8327 21.6673Z" fill="#F2DFCE"/>
<path d="M4.33268 28.1673C3.13607 28.1673 2.16602 29.1374 2.16602 30.334C2.16602 31.5306 3.13607 32.5007 4.33268 32.5007C7.92253 32.5007 10.8327 35.4108 10.8327 39.0007C10.8327 40.1973 11.8027 41.1673 12.9993 41.1673C14.196 41.1673 15.166 40.1973 15.166 39.0007C15.166 33.0176 10.3158 28.1673 4.33268 28.1673Z" fill="#F2DFCE"/>
<path d="M47.666 28.1673C48.8626 28.1673 49.8327 29.1374 49.8327 30.334C49.8327 31.5306 48.8626 32.5007 47.666 32.5007C44.0762 32.5007 41.166 35.4108 41.166 39.0007C41.166 40.1973 40.196 41.1673 38.9993 41.1673C37.8027 41.1673 36.8327 40.1973 36.8327 39.0007C36.8327 33.0176 41.6829 28.1673 47.666 28.1673Z" fill="#F2DFCE"/>
<path d="M4.33268 23.834C3.13607 23.834 2.16602 22.8639 2.16602 21.6673C2.16602 20.4707 3.13607 19.5007 4.33268 19.5007C7.92253 19.5007 10.8327 16.5905 10.8327 13.0007C10.8327 11.804 11.8027 10.834 12.9993 10.834C14.196 10.834 15.166 11.804 15.166 13.0007C15.166 18.9837 10.3158 23.834 4.33268 23.834Z" fill="#F2DFCE"/>
<path fill-rule="evenodd" clip-rule="evenodd" d="M26.0007 30.334C28.3939 30.334 30.334 28.3939 30.334 26.0007C30.334 23.6074 28.3939 21.6673 26.0007 21.6673C23.6074 21.6673 21.6673 23.6074 21.6673 26.0007C21.6673 28.3939 23.6074 30.334 26.0007 30.334ZM26.0007 34.6673C30.7871 34.6673 34.6673 30.7871 34.6673 26.0007C34.6673 21.2142 30.7871 17.334 26.0007 17.334C21.2142 17.334 17.334 21.2142 17.334 26.0007C17.334 30.7871 21.2142 34.6673 26.0007 34.6673Z" fill="#F2DFCE"/>
</svg>
