<svg width="52" height="52" viewBox="0 0 52 52" fill="none" xmlns="http://www.w3.org/2000/svg">
<path fill-rule="evenodd" clip-rule="evenodd" d="M41.1666 43.3334C42.3632 43.3334 43.3333 42.3634 43.3333 41.1667C43.3333 39.9701 42.3632 39.0001 41.1666 39.0001C39.97 39.0001 39 39.9701 39 41.1667C39 42.3634 39.97 43.3334 41.1666 43.3334ZM41.1666 47.6667C44.7565 47.6667 47.6666 44.7566 47.6666 41.1667C47.6666 37.5769 44.7565 34.6667 41.1666 34.6667C37.5768 34.6667 34.6666 37.5769 34.6666 41.1667C34.6666 44.7566 37.5768 47.6667 41.1666 47.6667Z" fill="#F2DFCE"/>
<path fill-rule="evenodd" clip-rule="evenodd" d="M33.5833 8.66659C30.5917 8.66659 28.1666 11.0917 28.1666 14.0833V37.9166C28.1666 43.3014 23.8014 47.6666 18.4166 47.6666C13.0318 47.6666 8.66663 43.3014 8.66663 37.9166V21.6666C8.66663 20.47 9.63668 19.4999 10.8333 19.4999C12.0299 19.4999 13 20.47 13 21.6666V37.9166C13 40.9081 15.4251 43.3333 18.4166 43.3333C21.4082 43.3333 23.8333 40.9081 23.8333 37.9166V14.0833C23.8333 8.69847 28.1985 4.33325 33.5833 4.33325C38.9681 4.33325 43.3333 8.69848 43.3333 14.0833V28.1666C43.3333 29.3632 42.3632 30.3333 41.1666 30.3333C39.97 30.3333 39 29.3632 39 28.1666V14.0833C39 11.0917 36.5748 8.66659 33.5833 8.66659Z" fill="#F2DFCE"/>
<path d="M8.96118 5.37548C9.79725 3.94222 11.8682 3.94222 12.7042 5.37548L16.5153 11.9088C17.3579 13.3532 16.316 15.1672 14.6438 15.1672H7.02161C5.3494 15.1672 4.30751 13.3532 5.15009 11.9088L8.96118 5.37548Z" fill="#F2DFCE"/>
</svg>
