<svg width="52" height="52" viewBox="0 0 52 52" fill="none" xmlns="http://www.w3.org/2000/svg">
<path fill-rule="evenodd" clip-rule="evenodd" d="M20.6326 19.3559C20.4137 19.8802 19.9201 20.2382 19.3538 20.2834L9.06372 21.1051C7.7173 21.2127 7.1725 22.894 8.19999 23.7707L16.0313 30.453C16.4651 30.8232 16.6546 31.4054 16.5218 31.96L14.1277 41.9576C13.8136 43.269 15.239 44.3074 16.391 43.6065L25.2123 38.2394C25.6966 37.9447 26.3047 37.9447 26.789 38.2394L35.6104 43.6065C36.7624 44.3074 38.1877 43.269 37.8737 41.9576L35.4796 31.96C35.3468 31.4054 35.5363 30.8232 35.9701 30.453L43.8013 23.7707C44.8288 22.894 44.284 21.2127 42.9376 21.1051L32.6475 20.2834C32.0812 20.2382 31.5876 19.8802 31.3687 19.3559L27.4002 9.85156C26.8812 8.60851 25.1201 8.60851 24.6011 9.85156L20.6326 19.3559ZM34.7054 16.1006L31.399 8.18191C29.397 3.38726 22.6043 3.3873 20.6023 8.18191L17.296 16.1006L8.71876 16.7855C3.52542 17.2003 1.42409 23.6854 5.38723 27.0671L11.9057 32.6292L9.91346 40.9485C8.70221 46.0067 14.2 50.012 18.6433 47.3085L26.0007 42.8321L33.358 47.3085C37.8014 50.012 43.2991 46.0066 42.0879 40.9485L40.0957 32.6292L46.6141 27.0671C50.5773 23.6854 48.4759 17.2003 43.2826 16.7855L34.7054 16.1006Z" fill="#F2DFCE"/>
</svg>
