<svg width="52" height="52" viewBox="0 0 52 52" fill="none" xmlns="http://www.w3.org/2000/svg">
<path fill-rule="evenodd" clip-rule="evenodd" d="M26 28.1666C17.6237 28.1666 10.8333 34.9569 10.8333 43.3333V47.6666C10.8333 48.8632 9.86328 49.8333 8.66667 49.8333C7.47005 49.8333 6.5 48.8632 6.5 47.6666V43.3333C6.5 32.5637 15.2304 23.8333 26 23.8333C36.7696 23.8333 45.5 32.5637 45.5 43.3333V47.6666C45.5 48.8632 44.53 49.8333 43.3333 49.8333C42.1367 49.8333 41.1667 48.8632 41.1667 47.6666V43.3333C41.1667 34.9569 34.3763 28.1666 26 28.1666Z" fill="#F2DFCE"/>
<path fill-rule="evenodd" clip-rule="evenodd" d="M26 23.8334C30.7865 23.8334 34.6667 19.9532 34.6667 15.1667C34.6667 10.3803 30.7865 6.50008 26 6.50008C21.2135 6.50008 17.3333 10.3803 17.3333 15.1667C17.3333 19.9532 21.2135 23.8334 26 23.8334ZM26 28.1667C33.1797 28.1667 39 22.3465 39 15.1667C39 7.98705 33.1797 2.16675 26 2.16675C18.8203 2.16675 13 7.98705 13 15.1667C13 22.3465 18.8203 28.1667 26 28.1667Z" fill="#F2DFCE"/>
</svg>
