<svg width="34" height="34" viewBox="0 0 34 34" fill="none" xmlns="http://www.w3.org/2000/svg">
<circle cx="17" cy="17" r="16.5" stroke="#1D1D1B"/>
<g clip-path="url(#clip0_110_1935)">
<path fill-rule="evenodd" clip-rule="evenodd" d="M22.5781 17.2898C22.5781 17.5332 22.3808 17.7306 22.1373 17.7306L13.526 17.7307L14.5618 18.737C14.7364 18.9066 14.7405 19.1857 14.5709 19.3603C14.4012 19.5349 14.1221 19.539 13.9475 19.3693L12.1325 17.6061C12.0471 17.5231 11.9989 17.4091 11.9989 17.2899C11.9989 17.1708 12.0471 17.0568 12.1325 16.9738L13.9475 15.2106C14.1221 15.0409 14.4012 15.045 14.5709 15.2196C14.7405 15.3942 14.7364 15.6733 14.5618 15.8429L13.526 16.8491L22.1373 16.849C22.3808 16.849 22.5781 17.0463 22.5781 17.2898Z" fill="#1D1D1B"/>
</g>
<defs>
<clipPath id="clip0_110_1935">
<rect width="10.5792" height="10.5792" fill="white" transform="matrix(-1 0 0 1 22.5781 12)"/>
</clipPath>
</defs>
</svg>
