<svg width="14" height="16" viewBox="0 0 14 16" fill="none" xmlns="http://www.w3.org/2000/svg">
<path fill-rule="evenodd" clip-rule="evenodd" d="M11.1258 5.1255H2.87416C2.04526 5.1255 1.38823 5.82487 1.43994 6.65216L1.79919 12.4003C1.84653 13.1576 2.47458 13.7476 3.23342 13.7476H10.7666C11.5254 13.7476 12.1535 13.1576 12.2008 12.4003L12.5601 6.65216C12.6118 5.82487 11.9547 5.1255 11.1258 5.1255ZM2.87416 3.68848C1.21635 3.68848 -0.0977 5.08722 0.00571155 6.7418L0.364968 12.4899C0.459638 14.0046 1.71574 15.1847 3.23342 15.1847H10.7666C12.2843 15.1847 13.5404 14.0046 13.635 12.4899L13.9943 6.7418C14.0977 5.08722 12.7837 3.68848 11.1258 3.68848H2.87416Z" fill="#F2DFCF"/>
<path fill-rule="evenodd" clip-rule="evenodd" d="M3.4082 4.40701C3.4082 2.4229 5.01665 0.814453 7.00076 0.814453C8.98488 0.814453 10.5933 2.4229 10.5933 4.40701V5.84404C10.5933 6.24086 10.2716 6.56255 9.87481 6.56255C9.47799 6.56255 9.1563 6.24086 9.1563 5.84404V4.40701C9.1563 3.21654 8.19123 2.25148 7.00076 2.25148C5.81029 2.25148 4.84523 3.21654 4.84523 4.40701V5.84404C4.84523 6.24086 4.52354 6.56255 4.12672 6.56255C3.72989 6.56255 3.4082 6.24086 3.4082 5.84404V4.40701Z" fill="#F2DFCF"/>
</svg>
