<svg width="13" height="13" viewBox="0 0 13 13" fill="none" xmlns="http://www.w3.org/2000/svg">
<path fill-rule="evenodd" clip-rule="evenodd" d="M6.5 7.04159C4.40592 7.04159 2.70833 8.73917 2.70833 10.8333V11.9166C2.70833 12.2157 2.46582 12.4583 2.16667 12.4583C1.86751 12.4583 1.625 12.2157 1.625 11.9166V10.8333C1.625 8.14086 3.80761 5.95825 6.5 5.95825C9.19239 5.95825 11.375 8.14086 11.375 10.8333V11.9166C11.375 12.2157 11.1325 12.4583 10.8333 12.4583C10.5342 12.4583 10.2917 12.2157 10.2917 11.9166V10.8333C10.2917 8.73917 8.59408 7.04159 6.5 7.04159Z" fill="#F2DFCF"/>
<path fill-rule="evenodd" clip-rule="evenodd" d="M6.5 5.95841C7.69662 5.95841 8.66667 4.98837 8.66667 3.79175C8.66667 2.59513 7.69662 1.62508 6.5 1.62508C5.30338 1.62508 4.33333 2.59513 4.33333 3.79175C4.33333 4.98837 5.30338 5.95841 6.5 5.95841ZM6.5 7.04175C8.29493 7.04175 9.75 5.58667 9.75 3.79175C9.75 1.99682 8.29493 0.541748 6.5 0.541748C4.70507 0.541748 3.25 1.99682 3.25 3.79175C3.25 5.58667 4.70507 7.04175 6.5 7.04175Z" fill="#F2DFCF"/>
</svg>
