<svg width="33" height="33" viewBox="0 0 33 33" fill="none" xmlns="http://www.w3.org/2000/svg">
<path fill-rule="evenodd" clip-rule="evenodd" d="M18.56 7.80967L17.5147 6.43111C16.9844 5.73169 15.9329 5.73169 15.4026 6.43111L14.3573 7.80967C13.7496 8.6111 12.7568 9.02233 11.7604 8.88533L10.0465 8.64968C9.17693 8.53011 8.43343 9.27361 8.553 10.1432L8.78865 11.8571C8.92565 12.8535 8.51442 13.8463 7.71299 14.454L6.33444 15.4993C5.63501 16.0296 5.63501 17.0811 6.33444 17.6114L7.71299 18.6567C8.51442 19.2644 8.92565 20.2572 8.78865 21.2536L8.553 22.9675C8.43343 23.8371 9.17694 24.5806 10.0465 24.461L11.7604 24.2254C12.7568 24.0884 13.7496 24.4996 14.3573 25.301L15.4026 26.6796C15.9329 27.379 16.9844 27.379 17.5147 26.6796L18.56 25.301C19.1677 24.4996 20.1605 24.0884 21.1569 24.2254L22.8708 24.461C23.7404 24.5806 24.4839 23.8371 24.3643 22.9675L24.1287 21.2536C23.9917 20.2572 24.4029 19.2644 25.2043 18.6567L26.5829 17.6114C27.2823 17.0811 27.2823 16.0296 26.5829 15.4993L25.2043 14.454C24.4029 13.8463 23.9917 12.8535 24.1287 11.8571L24.3643 10.1432C24.4839 9.27362 23.7404 8.53011 22.8708 8.64968L21.1569 8.88533C20.1605 9.02233 19.1677 8.6111 18.56 7.80967ZM19.6269 4.82957C18.0359 2.73129 14.8815 2.73129 13.2904 4.82957L12.2451 6.20813C12.2162 6.24629 12.1689 6.26587 12.1215 6.25935L10.4076 6.0237C7.79883 5.66501 5.56833 7.89551 5.92702 10.5042L6.16267 12.2182C6.16919 12.2656 6.14961 12.3129 6.11145 12.3418L4.73289 13.3871C2.63461 14.9781 2.63461 18.1325 4.73289 19.7236L6.11145 20.7689C6.14961 20.7978 6.16919 20.8451 6.16267 20.8925L5.92702 22.6064C5.56833 25.2152 7.79883 27.4457 10.4076 27.087L12.1215 26.8513C12.1689 26.8448 12.2162 26.8644 12.2451 26.9026L13.2904 28.2811C14.8815 30.3794 18.0359 30.3794 19.6269 28.2811L20.6722 26.9026C20.7011 26.8644 20.7484 26.8448 20.7958 26.8513L22.5098 27.087C25.1185 27.4457 27.349 25.2152 26.9903 22.6064L26.7547 20.8925C26.7481 20.8451 26.7677 20.7978 26.8059 20.7689L28.1844 19.7236C30.2827 18.1325 30.2827 14.9781 28.1844 13.3871L26.8059 12.3418C26.7677 12.3129 26.7481 12.2656 26.7547 12.2182L26.9903 10.5042C27.349 7.89551 25.1185 5.66501 22.5098 6.0237L20.7958 6.25935C20.7484 6.26587 20.7011 6.24629 20.6722 6.20813L19.6269 4.82957Z" fill="#20C997"/>
<path d="M20.0468 14.8416L14.7454 20.143C14.2278 20.6606 13.3887 20.6606 12.8711 20.143C12.3535 19.6254 12.3535 18.7862 12.8711 18.2687L18.1725 12.9673C18.69 12.4497 19.5292 12.4497 20.0468 12.9673C20.5644 13.4849 20.5644 14.324 20.0468 14.8416Z" fill="#20C997"/>
<path d="M15.1336 13.9044C15.1336 14.6364 14.5402 15.2298 13.8083 15.2298C13.0763 15.2298 12.4829 14.6364 12.4829 13.9044C12.4829 13.1725 13.0763 12.5791 13.8083 12.5791C14.5402 12.5791 15.1336 13.1725 15.1336 13.9044Z" fill="#20C997"/>
<path d="M17.7843 19.2058C17.7843 19.9378 18.3777 20.5312 19.1096 20.5312C19.8416 20.5312 20.435 19.9378 20.435 19.2058C20.435 18.4738 19.8416 17.8805 19.1096 17.8805C18.3777 17.8805 17.7843 18.4738 17.7843 19.2058Z" fill="#20C997"/>
</svg>
