<svg width="33" height="33" viewBox="0 0 33 33" fill="none" xmlns="http://www.w3.org/2000/svg">
<path fill-rule="evenodd" clip-rule="evenodd" d="M3.24662 18.107C3.77858 17.575 4.64105 17.575 5.173 18.107L9.65844 22.5924C10.1904 23.1244 10.1904 23.9868 9.65844 24.5188C9.12649 25.0508 8.26402 25.0508 7.73206 24.5188L3.24662 20.0334C2.71467 19.5014 2.71467 18.6389 3.24662 18.107Z" fill="#20C997"/>
<path d="M29.7294 7.73433C30.2397 7.18154 30.2052 6.31976 29.6524 5.80949C29.0996 5.29922 28.2378 5.33369 27.7275 5.88648L12.3056 22.5936C11.7953 23.1464 11.8298 24.0082 12.3826 24.5185C12.9354 25.0287 13.7971 24.9943 14.3074 24.4415L23.7101 14.2552C23.9725 13.9709 24.4187 13.962 24.6922 14.2355L26.4032 15.9465C26.9351 16.4785 27.7976 16.4785 28.3296 15.9465C28.8615 15.4146 28.8615 14.5521 28.3296 14.0202L26.503 12.1936C26.2445 11.9351 26.2362 11.5186 26.4841 11.25L29.7294 7.73433Z" fill="#20C997"/>
<path fill-rule="evenodd" clip-rule="evenodd" d="M8.13074 17.5427L5.73694 15.1489C4.14107 13.553 4.14107 10.9656 5.73694 9.3697L10.8551 4.25159C12.4509 2.65572 15.0383 2.65572 16.6342 4.25159L19.028 6.64539C20.6239 8.24126 20.6239 10.8287 19.028 12.4245L13.9099 17.5427C12.314 19.1385 9.72661 19.1385 8.13074 17.5427ZM7.66332 13.2225L10.0571 15.6163C10.5891 16.1482 11.4515 16.1482 11.9835 15.6163L17.1016 10.4982C17.6336 9.9662 17.6336 9.10373 17.1016 8.57177L14.7078 6.17797C14.1759 5.64601 13.3134 5.64601 12.7814 6.17797L7.66332 11.2961C7.13137 11.828 7.13136 12.6905 7.66332 13.2225Z" fill="#20C997"/>
<path fill-rule="evenodd" clip-rule="evenodd" d="M11.0206 27.2436C11.7729 27.2436 12.3827 26.6337 12.3827 25.8814C12.3827 25.1291 11.7729 24.5192 11.0206 24.5192C10.2683 24.5192 9.6584 25.1291 9.6584 25.8814C9.6584 26.6337 10.2683 27.2436 11.0206 27.2436ZM11.0206 29.9679C13.2775 29.9679 15.107 28.1383 15.107 25.8814C15.107 23.6245 13.2775 21.7949 11.0206 21.7949C8.76366 21.7949 6.93408 23.6245 6.93408 25.8814C6.93408 28.1383 8.76366 29.9679 11.0206 29.9679Z" fill="#20C997"/>
</svg>
