<svg width="32" height="33" viewBox="0 0 32 33" fill="none" xmlns="http://www.w3.org/2000/svg">
<path fill-rule="evenodd" clip-rule="evenodd" d="M3.97607 16.4386C3.97607 15.7067 4.56945 15.1133 5.30142 15.1133H26.5069C27.2389 15.1133 27.8322 15.7067 27.8322 16.4386V23.0653C27.8322 25.9932 25.4587 28.3667 22.5309 28.3667H9.27744C6.34958 28.3667 3.97607 25.9932 3.97607 23.0653V16.4386ZM7.28943 17.764C6.92345 17.764 6.62676 18.0607 6.62676 18.4266V23.0653C6.62676 24.5293 7.81351 25.716 9.27744 25.716H22.5309C23.9948 25.716 25.1816 24.5293 25.1816 23.0653V18.4266C25.1816 18.0607 24.8849 17.764 24.5189 17.764H7.28943Z" fill="#F2DFCF"/>
<path fill-rule="evenodd" clip-rule="evenodd" d="M25.1817 11.137H6.62691C5.89494 11.137 5.30156 11.7304 5.30156 12.4624V13.7877C5.30156 14.5197 5.89494 15.113 6.62691 15.113H25.1817C25.9137 15.113 26.507 14.5197 26.507 13.7877V12.4624C26.507 11.7304 25.9137 11.137 25.1817 11.137ZM6.62691 8.48633C4.43101 8.48633 2.65088 10.2665 2.65088 12.4624V13.7877C2.65088 15.9836 4.43101 17.7637 6.62691 17.7637H25.1817C27.3776 17.7637 29.1577 15.9836 29.1577 13.7877V12.4624C29.1577 10.2665 27.3776 8.48633 25.1817 8.48633H6.62691Z" fill="#F2DFCF"/>
<path d="M14.5786 8.48633H17.2293V28.3665H14.5786V8.48633Z" fill="#F2DFCF"/>
<path fill-rule="evenodd" clip-rule="evenodd" d="M13.2534 11.1366C11.0575 11.1366 9.27734 9.3565 9.27734 7.1606C9.27734 4.9647 11.0575 3.18457 13.2534 3.18457C14.2717 3.18457 15.2006 3.5674 15.9041 4.19699C16.6075 3.5674 17.5364 3.18457 18.5547 3.18457C20.7506 3.18457 22.5308 4.9647 22.5308 7.1606C22.5308 9.3565 20.7506 11.1366 18.5547 11.1366H13.2534ZM13.2534 5.83526C13.9853 5.83526 14.5787 6.42863 14.5787 7.1606V8.48594H13.2534C12.5214 8.48594 11.928 7.89256 11.928 7.1606C11.928 6.42863 12.5214 5.83526 13.2534 5.83526ZM17.2294 8.48594H18.5547C19.2867 8.48594 19.8801 7.89256 19.8801 7.1606C19.8801 6.42863 19.2867 5.83526 18.5547 5.83526C17.8228 5.83526 17.2294 6.42863 17.2294 7.1606V8.48594Z" fill="#F2DFCF"/>
</svg>
